<?xml version="1.0" encoding="iso-8859-1"?>
<!-- Generator: Adobe Illustrator 21.0.0, SVG Export Plug-In . SVG Version: 6.00 Build 0)  -->
<svg xmlns="http://www.w3.org/2000/svg" xmlns:xlink="http://www.w3.org/1999/xlink" version="1.1" id="Capa_1" x="0px" y="0px" viewBox="0 0 512 512" style="enable-background:new 0 0 512 512;" xml:space="preserve" width="512" height="512">
<g>
	<g>
		<path style="fill:#E2A975;" d="M265.865,405.999H115.521c-2.763,0-5.003-2.24-5.003-5.003V250.611c0-2.763,2.24-5.003,5.003-5.003    h150.344c2.763,0,5.003,2.24,5.003,5.003v150.385C270.868,403.759,268.628,405.999,265.865,405.999z"/>
		<path style="fill:#C38C66;" d="M265.865,245.607h-30c2.763,0,5.003,2.24,5.003,5.003v150.385c0,2.763-2.24,5.003-5.003,5.003h30    c2.763,0,5.003-2.24,5.003-5.003V250.611C270.868,247.848,268.628,245.607,265.865,245.607z"/>
		<path style="fill:#C38C66;" d="M270.868,274.433H110.518v-23.825c0-2.761,2.239-5,5-5h150.351c2.761,0,5,2.239,5,5V274.433z"/>
		<path style="fill:#966A5B;" d="M265.868,245.607h-30c2.761,0,5,2.239,5,5v23.825h30v-23.825    C270.868,247.846,268.63,245.607,265.868,245.607z"/>
		<path style="fill:#FFF5D7;" d="M205.951,299.675h-30.517c-2.761,0-5-2.239-5-5v-49.067h40.517v49.067    C210.951,297.436,208.713,299.675,205.951,299.675z"/>
	</g>
	<g>
		<path style="fill:#E2A975;" d="M454.347,405.999H304.003c-2.763,0-5.003-2.24-5.003-5.003V250.611c0-2.763,2.24-5.003,5.003-5.003    h150.344c2.763,0,5.003,2.24,5.003,5.003v150.385C459.351,403.759,457.111,405.999,454.347,405.999z"/>
		<path style="fill:#C38C66;" d="M454.347,245.607h-30c2.763,0,5.003,2.24,5.003,5.003v150.385c0,2.763-2.24,5.003-5.003,5.003h30    c2.763,0,5.003-2.24,5.003-5.003V250.611C459.351,247.848,457.11,245.607,454.347,245.607z"/>
		<path style="fill:#C38C66;" d="M459.351,274.433H299v-23.825c0-2.761,2.239-5,5-5h150.351c2.761,0,5,2.239,5,5V274.433z"/>
		<path style="fill:#966A5B;" d="M454.351,245.607h-30c2.761,0,5,2.239,5,5v23.825h30v-23.825    C459.351,247.846,457.112,245.607,454.351,245.607z"/>
		<path style="fill:#FFF5D7;" d="M394.434,299.675h-30.517c-2.761,0-5-2.239-5-5v-49.067h40.517v49.067    C399.434,297.436,397.195,299.675,394.434,299.675z"/>
	</g>
	<ellipse style="fill:#C3DDFF;" cx="133.856" cy="477.849" rx="26.644" ry="26.65"/>
	<ellipse style="fill:#C3DDFF;" cx="433.856" cy="477.849" rx="26.644" ry="26.65"/>
	<g>
		<path style="fill:#E2A975;" d="M265.865,218.462H115.521c-2.763,0-5.003-2.24-5.003-5.003V63.074c0-2.763,2.24-5.003,5.003-5.003    h150.344c2.763,0,5.003,2.24,5.003,5.003v150.385C270.868,216.222,268.628,218.462,265.865,218.462z"/>
		<path style="fill:#C38C66;" d="M265.865,58.071h-30c2.763,0,5.003,2.24,5.003,5.004v150.385c0,2.763-2.24,5.003-5.003,5.003h30    c2.763,0,5.003-2.24,5.003-5.003V63.074C270.868,60.311,268.628,58.071,265.865,58.071z"/>
		<path style="fill:#C38C66;" d="M270.868,86.896H110.518V63.071c0-2.761,2.239-5,5-5h150.351c2.761,0,5,2.239,5,5V86.896z"/>
		<path style="fill:#966A5B;" d="M265.868,58.071h-30c2.761,0,5,2.239,5,5v23.825h30V63.071    C270.868,60.309,268.63,58.071,265.868,58.071z"/>
		<path style="fill:#FFF5D7;" d="M205.951,112.138h-30.517c-2.761,0-5-2.239-5-5V58.071h40.517v49.067    C210.951,109.9,208.713,112.138,205.951,112.138z"/>
	</g>
</g>
<g>
	<path d="M504.5,443.5H76.604V7.5c0-4.143-3.358-7.5-7.5-7.5H7.5c-9.673,0-9.673,15,0,15h54.104v436c0,4.143,3.358,7.5,7.5,7.5   h37.39c-3.799,5.504-6.03,12.17-6.03,19.35c0,18.831,15.317,34.15,34.144,34.15s34.144-15.319,34.144-34.15   c0-7.18-2.232-13.845-6.03-19.35h243.774c-3.799,5.504-6.03,12.17-6.03,19.35c0,18.831,15.317,34.15,34.144,34.15   s34.144-15.319,34.144-34.15c0-7.18-2.232-13.845-6.03-19.35h41.78C514.173,458.5,514.173,443.5,504.5,443.5z M134.606,497   c-10.556,0-19.144-8.591-19.144-19.15s8.588-19.15,19.144-19.15s19.144,8.591,19.144,19.15S145.162,497,134.606,497z M434.606,497   c-10.556,0-19.144-8.591-19.144-19.15s8.588-19.15,19.144-19.15s19.144,8.591,19.144,19.15S445.162,497,434.606,497z"/>
	<path d="M111.268,413.5h160.351c4.142,0,7.5-3.357,7.5-7.5V245.607c0-4.143-3.358-7.5-7.5-7.5h-59.917h-40.517h-59.917   c-4.142,0-7.5,3.357-7.5,7.5V406C103.768,410.143,107.125,413.5,111.268,413.5z M118.768,398.5V281.933h44.917v17.743   c0,4.143,3.358,7.5,7.5,7.5h40.517c4.142,0,7.5-3.357,7.5-7.5v-17.743h44.917V398.5H118.768z M264.118,266.933h-44.917v-13.825   h44.917V266.933z M204.201,253.107v39.068h-25.517v-39.068H204.201z M163.685,253.107v13.825h-44.917v-13.825H163.685z"/>
	<path d="M212.25,357.037c-4.142,0-7.5,3.357-7.5,7.5v14.269c0,9.673,15,9.673,15,0v-14.269   C219.75,360.395,216.392,357.037,212.25,357.037z"/>
	<path d="M242.215,357.037c-4.142,0-7.5,3.357-7.5,7.5v14.269c0,9.673,15,9.673,15,0v-14.269   C249.715,360.395,246.357,357.037,242.215,357.037z"/>
	<path d="M299.75,413.5h16.5c9.673,0,9.673-15,0-15h-9V281.933h44.917v17.743c0,4.143,3.358,7.5,7.5,7.5h40.517   c4.142,0,7.5-3.357,7.5-7.5v-17.743h44.917V398.5H349.25c-9.673,0-9.673,15,0,15h110.851c4.142,0,7.5-3.357,7.5-7.5V245.607   c0-4.143-3.358-7.5-7.5-7.5h-59.917h-40.517H299.75c-4.142,0-7.5,3.357-7.5,7.5V406C292.25,410.143,295.608,413.5,299.75,413.5z    M452.601,266.933h-44.917v-13.825h44.917V266.933z M392.684,253.107v39.068h-25.517v-39.068H392.684z M352.167,253.107v13.825   H307.25v-13.825H352.167z"/>
	<path d="M408.232,378.806v-14.269c0-9.673-15-9.673-15,0v14.269C393.232,388.478,408.232,388.478,408.232,378.806z"/>
	<path d="M438.198,378.806v-14.269c0-9.673-15-9.673-15,0v14.269C423.198,388.478,438.198,388.478,438.198,378.806z"/>
	<path d="M111.268,225.963h160.351c4.142,0,7.5-3.357,7.5-7.5v-37.301c0-9.673-15-9.673-15,0v29.801H118.768V94.396h44.917v17.742   c0,4.143,3.358,7.5,7.5,7.5h40.517c4.142,0,7.5-3.357,7.5-7.5V94.396h44.917V148c0,9.673,15,9.673,15,0V58.071   c0-4.143-3.358-7.5-7.5-7.5h-59.917h-40.517h-59.917c-4.142,0-7.5,3.357-7.5,7.5v160.392   C103.768,222.605,107.125,225.963,111.268,225.963z M264.118,79.396h-44.917V65.571h44.917V79.396z M204.201,65.571v39.067h-25.517   V65.571H204.201z M163.685,65.571v13.825h-44.917V65.571H163.685z"/>
	<path d="M212.25,169.5c-4.142,0-7.5,3.357-7.5,7.5v14.271c0,9.673,15,9.673,15,0V177C219.75,172.857,216.392,169.5,212.25,169.5z"/>
	<path d="M234.715,177v14.271c0,9.673,15,9.673,15,0V177C249.715,167.327,234.715,167.327,234.715,177z"/>
</g>















</svg>
